<svg width="22" height="22" viewBox="0 0 22 22" fill="none" xmlns="http://www.w3.org/2000/svg">
<path d="M8.57464 19.25C9.22101 19.8205 10.0701 20.1667 11 20.1667C11.9299 20.1667 12.7789 19.8205 13.4253 19.25M16.5 7.33334C16.5 5.87465 15.9205 4.47571 14.8891 3.44426C13.8576 2.41281 12.4587 1.83334 11 1.83334C9.54129 1.83334 8.14234 2.41281 7.11089 3.44426C6.07944 4.47571 5.49998 5.87465 5.49998 7.33334C5.49998 10.166 4.78541 12.1055 3.98717 13.3883C3.31384 14.4704 2.97718 15.0114 2.98952 15.1624C3.00319 15.3295 3.0386 15.3932 3.17327 15.4931C3.2949 15.5833 3.84318 15.5833 4.93976 15.5833H17.0602C18.1568 15.5833 18.7051 15.5833 18.8267 15.4931C18.9614 15.3932 18.9968 15.3295 19.0104 15.1624C19.0228 15.0114 18.6861 14.4704 18.0128 13.3883C17.2145 12.1055 16.5 10.166 16.5 7.33334Z" stroke="black" stroke-width="1.2" stroke-linecap="round" stroke-linejoin="round"/>
</svg>
