<svg width="18" height="19" viewBox="0 0 18 19" fill="none" xmlns="http://www.w3.org/2000/svg">
<path d="M10 4.25C10 3.69772 9.55228 3.25 9 3.25C8.44772 3.25 8 3.69772 8 4.25H10ZM8 14.75C8 15.3023 8.44772 15.75 9 15.75C9.55228 15.75 10 15.3023 10 14.75H8ZM3.75 8.5C3.19772 8.5 2.75 8.94772 2.75 9.5C2.75 10.0523 3.19772 10.5 3.75 10.5V8.5ZM14.25 10.5C14.8023 10.5 15.25 10.0523 15.25 9.5C15.25 8.94772 14.8023 8.5 14.25 8.5V10.5ZM8 4.25V14.75H10V4.25H8ZM3.75 10.5H14.25V8.5H3.75V10.5Z" fill="white"/>
</svg>
