<svg width="16" height="17" viewBox="0 0 16 17" fill="none" xmlns="http://www.w3.org/2000/svg">
<path d="M14.0666 14.5C14.0666 14.8314 14.3353 15.1 14.6666 15.1C14.998 15.1 15.2666 14.8314 15.2666 14.5H14.0666ZM12.8162 10.0029C12.4953 9.92035 12.1682 10.1135 12.0856 10.4345C12.003 10.7554 12.1962 11.0825 12.5171 11.1651L12.8162 10.0029ZM10.5584 2.13768C10.2513 2.01334 9.90149 2.16155 9.77715 2.46871C9.65281 2.77587 9.80102 3.12567 10.1082 3.25L10.5584 2.13768ZM10.1082 7.08333C9.80102 7.20767 9.65281 7.55746 9.77715 7.86462C9.90149 8.17178 10.2513 8.31999 10.5584 8.19566L10.1082 7.08333ZM9.68713 10.703L9.91675 10.1487L9.68713 10.703ZM10.7333 14.5C10.7333 14.8314 11.0019 15.1 11.3333 15.1C11.6647 15.1 11.9333 14.8314 11.9333 14.5H10.7333ZM11.1303 12.1462L11.6847 11.9166V11.9166L11.1303 12.1462ZM2.97949 10.703L2.74988 10.1487H2.74988L2.97949 10.703ZM0.733313 14.5C0.733313 14.8314 1.00194 15.1 1.33331 15.1C1.66468 15.1 1.93331 14.8314 1.93331 14.5H0.733313ZM1.5363 12.1462L0.981973 11.9166L1.5363 12.1462ZM14.0666 13.1667V14.5H15.2666V13.1667H14.0666ZM12.5171 11.1651C13.4086 11.3945 14.0666 12.2045 14.0666 13.1667H15.2666C15.2666 11.6437 14.225 10.3656 12.8162 10.0029L12.5171 11.1651ZM10.1082 3.25C10.8667 3.55703 11.4 4.30029 11.4 5.16667H12.6C12.6 3.79479 11.7545 2.62183 10.5584 2.13768L10.1082 3.25ZM11.4 5.16667C11.4 6.03304 10.8667 6.7763 10.1082 7.08333L10.5584 8.19566C11.7545 7.7115 12.6 6.53854 12.6 5.16667H11.4ZM5.33331 11.1H7.33331V9.9H5.33331V11.1ZM7.33331 11.1C7.96278 11.1 8.40483 11.1003 8.75155 11.124C9.09289 11.1473 9.29779 11.1912 9.45753 11.2573L9.91675 10.1487C9.58642 10.0118 9.23567 9.95422 8.83324 9.92677C8.43619 9.89968 7.94636 9.9 7.33331 9.9V11.1ZM11.9333 14.5C11.9333 13.887 11.9336 13.3971 11.9065 13.0001C11.8791 12.5976 11.8215 12.2469 11.6847 11.9166L10.576 12.3758C10.6422 12.5355 10.686 12.7404 10.7093 13.0818C10.733 13.4285 10.7333 13.8705 10.7333 14.5H11.9333ZM9.45753 11.2573C9.96392 11.4671 10.3662 11.8694 10.576 12.3758L11.6847 11.9166C11.3531 11.1161 10.7172 10.4802 9.91675 10.1487L9.45753 11.2573ZM5.33331 9.9C4.72027 9.9 4.23043 9.89968 3.83339 9.92677C3.43095 9.95422 3.0802 10.0118 2.74988 10.1487L3.2091 11.2573C3.36883 11.1912 3.57374 11.1473 3.91507 11.124C4.2618 11.1003 4.70385 11.1 5.33331 11.1V9.9ZM1.93331 14.5C1.93331 13.8705 1.93364 13.4285 1.95729 13.0818C1.98058 12.7404 2.02446 12.5355 2.09063 12.3758L0.981973 11.9166C0.845149 12.2469 0.787536 12.5976 0.760078 13.0001C0.732988 13.3971 0.733313 13.887 0.733313 14.5H1.93331ZM2.74988 10.1487C1.94946 10.4802 1.31352 11.1161 0.981973 11.9166L2.09063 12.3758C2.30038 11.8694 2.70271 11.4671 3.2091 11.2573L2.74988 10.1487ZM8.39998 5.16667C8.39998 6.30806 7.4747 7.23333 6.33331 7.23333V8.43333C8.13744 8.43333 9.59998 6.9708 9.59998 5.16667H8.39998ZM6.33331 7.23333C5.19192 7.23333 4.26665 6.30806 4.26665 5.16667H3.06665C3.06665 6.9708 4.52918 8.43333 6.33331 8.43333V7.23333ZM4.26665 5.16667C4.26665 4.02528 5.19192 3.1 6.33331 3.1V1.9C4.52918 1.9 3.06665 3.36254 3.06665 5.16667H4.26665ZM6.33331 3.1C7.4747 3.1 8.39998 4.02528 8.39998 5.16667H9.59998C9.59998 3.36254 8.13744 1.9 6.33331 1.9V3.1Z" fill="#A8A8A8"/>
</svg>
